# Blender v2.93.1 OBJ File: ''
# www.blender.org
mtllib prop.mtl
o drone_costum_Cube
v 4.391247 1.227960 2.617958
v 4.302527 1.378806 2.607724
v 4.336609 1.378806 2.543786
v 4.336609 1.188359 2.543786
v 4.302527 1.188359 2.607724
v 4.336609 1.378806 2.543786
v 4.406118 1.378806 2.523332
v 4.406118 1.188359 2.523332
v 4.336609 1.188359 2.543786
v 4.388056 1.378806 2.712710
v 4.323836 1.378806 2.677696
v 4.323836 1.188359 2.677696
v 4.388056 1.188359 2.712710
v 4.323836 1.378806 2.677696
v 4.302527 1.378806 2.607724
v 4.302527 1.188359 2.607724
v 4.323836 1.188359 2.677696
v 4.470336 1.188359 2.558347
v 4.397086 1.188359 2.618021
v 4.457564 1.188359 2.692257
v 4.388056 1.188359 2.712710
v 4.491647 1.188359 2.628317
v 2.694243 1.608209 4.130861
v 2.694243 1.640233 4.130861
v 2.571257 1.640233 3.979897
v 2.571257 1.608209 3.979897
v 4.443240 1.557302 2.341623
v 4.677108 1.557302 2.628693
v 4.530887 1.557302 2.650479
v 4.488345 1.557302 2.543675
v 4.392347 1.557302 2.480422
v 6.099931 1.608210 1.105181
v 6.099931 1.640234 1.105181
v 6.222916 1.640234 1.256145
v 6.222916 1.608210 1.256145
v 5.456395 1.599867 1.564013
v 5.936890 1.599867 1.172565
v 6.123965 1.599867 1.402197
v 5.643470 1.599867 1.793644
v 5.643470 1.599867 1.793644
v 6.123965 1.599867 1.402197
v 6.123965 1.648578 1.402197
v 5.643470 1.648578 1.793644
v 5.643470 1.648578 1.793644
v 6.123965 1.648578 1.402197
v 5.936890 1.648578 1.172565
v 5.456395 1.648578 1.564012
v 5.456395 1.648578 1.564012
v 5.936890 1.648578 1.172565
v 5.936890 1.599867 1.172565
v 5.456395 1.599867 1.564013
v 3.338474 1.599866 3.671463
v 2.858327 1.599866 4.062626
v 2.671252 1.599866 3.832994
v 3.151399 1.599866 3.441831
v 3.151399 1.599866 3.441831
v 2.671252 1.599866 3.832994
v 2.671252 1.648577 3.832994
v 3.151399 1.648577 3.441831
v 3.151399 1.648577 3.441831
v 2.671252 1.648577 3.832994
v 2.858327 1.648577 4.062626
v 3.338474 1.648577 3.671463
v 3.338474 1.648577 3.671463
v 2.858327 1.648577 4.062626
v 2.858327 1.599866 4.062626
v 3.338474 1.599866 3.671463
v 4.401827 1.557302 2.755620
v 4.305828 1.557302 2.692367
v 4.117066 1.557302 2.607348
v 4.299123 1.557302 2.497773
v 4.263286 1.557302 2.585563
v 4.350934 1.557302 2.894418
v 4.305828 1.557302 2.692367
v 4.401827 1.557302 2.755620
v 4.495049 1.557302 2.738270
v 4.305828 1.557302 2.692367
v 4.263286 1.557302 2.585563
v 4.530887 1.557302 2.650479
v 4.495049 1.557302 2.738270
v 4.457564 1.378806 2.692257
v 4.491647 1.378806 2.628317
v 4.495049 1.557302 2.738270
v 4.457564 1.378806 2.692257
v 4.457564 1.188359 2.692257
v 4.491647 1.188359 2.628317
v 4.457564 1.188359 2.692257
v 4.470336 1.378806 2.558347
v 4.470336 1.188359 2.558347
v 4.470336 1.378806 2.558347
v 4.491647 1.378806 2.628317
v 4.491647 1.188359 2.628317
v 4.470336 1.188359 2.558347
v 4.299123 1.557302 2.497773
v 4.392347 1.557302 2.480422
v 4.263286 1.557302 2.585563
v 4.299123 1.557302 2.497773
v 4.488345 1.557302 2.543675
v 4.530887 1.557302 2.650479
v 4.488345 1.557302 2.543675
v 4.298768 1.648578 2.889137
v 3.818621 1.648577 3.280300
v 3.818621 1.599866 3.280300
v 4.298768 1.599867 2.889137
v 4.111694 1.648578 2.659505
v 3.631546 1.648577 3.050668
v 3.818621 1.648577 3.280300
v 4.298768 1.648578 2.889137
v 4.111694 1.599867 2.659505
v 3.631546 1.599866 3.050668
v 3.631546 1.648577 3.050668
v 4.111694 1.648578 2.659505
v 4.298768 1.599867 2.889137
v 3.818621 1.599866 3.280300
v 3.631546 1.599866 3.050668
v 4.111694 1.599867 2.659505
v 4.495404 1.648578 2.346906
v 4.975899 1.648578 1.955459
v 4.975899 1.599867 1.955459
v 4.495404 1.599867 2.346906
v 4.682479 1.648578 2.576538
v 5.162974 1.648578 2.185091
v 4.975899 1.648578 1.955459
v 4.495404 1.648578 2.346906
v 4.682479 1.599867 2.576538
v 5.162974 1.599867 2.185091
v 5.162974 1.648578 2.185091
v 4.682479 1.648578 2.576538
v 4.495404 1.599867 2.346906
v 4.975899 1.599867 1.955459
v 5.162974 1.599867 2.185091
v 4.682479 1.599867 2.576538
v 2.694243 1.640233 4.130861
v 2.694243 1.608209 4.130861
v 4.117066 1.557302 2.607348
v 4.117066 1.691143 2.607348
v 4.443240 1.691143 2.341623
v 4.443240 1.557302 2.341623
v 4.677108 1.557302 2.628693
v 4.677108 1.691143 2.628693
v 4.350934 1.691143 2.894418
v 4.350934 1.557302 2.894418
v 4.443240 1.691143 2.341623
v 4.117066 1.691143 2.607348
v 4.350934 1.691143 2.894418
v 4.677108 1.691143 2.628693
v 4.117066 1.691143 2.607348
v 4.111694 1.648578 2.659505
v 4.298768 1.648578 2.889137
v 4.350934 1.691143 2.894418
v 4.117066 1.557302 2.607348
v 4.111694 1.599867 2.659505
v 4.111694 1.648578 2.659505
v 4.117066 1.691143 2.607348
v 4.350934 1.557302 2.894418
v 4.298768 1.599867 2.889137
v 4.111694 1.599867 2.659505
v 4.117066 1.557302 2.607348
v 4.677108 1.691143 2.628693
v 4.682479 1.648578 2.576538
v 4.495404 1.648578 2.346906
v 4.443240 1.691143 2.341623
v 4.677108 1.557302 2.628693
v 4.682479 1.599867 2.576538
v 4.682479 1.648578 2.576538
v 4.677108 1.691143 2.628693
v 4.443240 1.557302 2.341623
v 4.495404 1.599867 2.346906
v 4.682479 1.599867 2.576538
v 4.677108 1.557302 2.628693
v 2.571257 1.640233 3.979897
v 2.694243 1.640233 4.130861
v 2.571257 1.608209 3.979897
v 2.571257 1.640233 3.979897
v 2.694243 1.608209 4.130861
v 2.571257 1.608209 3.979897
v 6.099931 1.640234 1.105181
v 6.099931 1.608210 1.105181
v 6.222916 1.640234 1.256145
v 6.099931 1.640234 1.105181
v 6.222916 1.608210 1.256145
v 6.222916 1.640234 1.256145
v 6.099931 1.608210 1.105181
v 6.222916 1.608210 1.256145
vt 0.000000 0.000000
vt 0.000000 0.000000
vt 0.000000 0.000000
vt 0.000000 0.000000
vt 0.000000 0.000000
vt 0.000000 0.000000
vt 0.000000 0.000000
vt 0.000000 0.000000
vt 0.000000 0.000000
vt 0.000000 0.000000
vt 0.000000 0.000000
vt 0.000000 0.000000
vt 0.000000 0.000000
vt 0.000000 0.000000
vt 0.000000 0.000000
vt 0.000000 0.000000
vt 0.000000 0.000000
vt 0.000000 0.000000
vt 0.000000 0.000000
vt 0.000000 0.000000
vt 0.000000 0.000000
vt 0.000000 0.000000
vt 0.000000 0.000000
vt 0.000000 0.000000
vt 0.000000 0.000000
vt 0.000000 0.000000
vt 0.000000 0.000000
vt 0.000000 0.000000
vt 0.000000 0.000000
vt 0.000000 0.000000
vt 0.000000 0.000000
vt 0.000000 0.000000
vt 0.000000 0.000000
vt 0.000000 0.000000
vt 0.000000 0.000000
vt 0.000000 0.000000
vt 0.000000 0.000000
vt 0.000000 0.000000
vt 0.000000 0.000000
vt 0.000000 0.000000
vt 0.000000 0.000000
vt 0.000000 0.000000
vt 0.000000 0.000000
vt 0.000000 0.000000
vt 0.000000 0.000000
vt 0.000000 0.000000
vt 0.000000 0.000000
vt 0.000000 0.000000
vt 0.000000 0.000000
vt 0.000000 0.000000
vt 0.000000 0.000000
vt 0.000000 0.000000
vt 0.000000 0.000000
vt 0.000000 0.000000
vt 0.000000 0.000000
vt 0.000000 0.000000
vt 0.000000 0.000000
vt 0.000000 0.000000
vt 0.000000 0.000000
vt 0.000000 0.000000
vt 0.000000 0.000000
vt 0.000000 0.000000
vt 0.000000 0.000000
vt 0.000000 0.000000
vt 0.000000 0.000000
vt 0.000000 0.000000
vt 0.000000 0.000000
vt 0.000000 0.000000
vt 0.000000 0.000000
vt 0.000000 0.000000
vt 0.000000 0.000000
vt 0.000000 0.000000
vt 0.000000 0.000000
vt 0.000000 0.000000
vt 0.000000 0.000000
vt 0.000000 0.000000
vt 0.000000 0.000000
vt 0.000000 0.000000
vt 0.000000 0.000000
vt 0.000000 0.000000
vt 0.000000 0.000000
vt 0.000000 0.000000
vt 0.000000 0.000000
vt 0.000000 0.000000
vt 0.000000 0.000000
vt 0.000000 0.000000
vt 0.000000 0.000000
vt 0.000000 0.000000
vt 0.000000 0.000000
vt 0.000000 0.000000
vt 0.000000 0.000000
vt 0.000000 0.000000
vt 0.000000 0.000000
vt 0.000000 0.000000
vt 0.000000 0.000000
vt 0.000000 0.000000
vt 0.000000 0.000000
vt 0.000000 0.000000
vt 0.000000 0.000000
vt 0.000000 0.000000
vt 0.000000 0.000000
vt 0.000000 0.000000
vt 0.000000 0.000000
vt 0.000000 0.000000
vt 0.000000 0.000000
vt 0.000000 0.000000
vt 0.000000 0.000000
vt 0.000000 0.000000
vt 0.000000 0.000000
vt 0.000000 0.000000
vt 0.000000 0.000000
vt 0.000000 0.000000
vt 0.000000 0.000000
vt 0.000000 0.000000
vt 0.000000 0.000000
vt 0.000000 0.000000
vt 0.000000 0.000000
vt 0.000000 0.000000
vt 0.000000 0.000000
vt 0.000000 0.000000
vt 0.000000 0.000000
vt 0.000000 0.000000
vt 0.000000 0.000000
vt 0.000000 0.000000
vt 0.000000 0.000000
vt 0.000000 0.000000
vt 0.000000 0.000000
vt 0.000000 0.000000
vt 0.000000 0.000000
vt 0.000000 0.000000
vt 0.000000 0.000000
vt 0.000000 0.000000
vt 0.000000 0.000000
vt 0.000000 0.000000
vt 0.000000 0.000000
vt 0.000000 0.000000
vt 0.000000 0.000000
vt 0.000000 0.000000
vt 0.000000 0.000000
vt 0.000000 0.000000
vt 0.000000 0.000000
vt 0.000000 0.000000
vt 0.000000 0.000000
vt 0.000000 0.000000
vt 0.000000 0.000000
vt 0.000000 0.000000
vt 0.000000 0.000000
vt 0.000000 0.000000
vt 0.000000 0.000000
vt 0.000000 0.000000
vt 0.000000 0.000000
vt 0.000000 0.000000
vt 0.000000 0.000000
vt 0.000000 0.000000
vt 0.000000 0.000000
vt 0.000000 0.000000
vt 0.000000 0.000000
vt 0.000000 0.000000
vt 0.000000 0.000000
vt 0.000000 0.000000
vt 0.000000 0.000000
vt 0.000000 0.000000
vt 0.000000 0.000000
vt 0.000000 0.000000
vt 0.000000 0.000000
vt 0.000000 0.000000
vt 0.000000 0.000000
vt 0.000000 0.000000
vt 0.000000 0.000000
vt 0.000000 0.000000
vt 0.000000 0.000000
vt 0.000000 0.000000
vt 0.000000 0.000000
vt 0.000000 0.000000
vt 0.000000 0.000000
vt 0.000000 0.000000
vt 0.000000 0.000000
vt 0.000000 0.000000
vt 0.000000 0.000000
vt 0.000000 0.000000
vt 0.000000 0.000000
vt 0.000000 0.000000
vn -0.8874 -0.1336 -0.4412
vn -0.8873 -0.1389 -0.4398
vn -0.8825 0.0000 -0.4704
vn -0.2514 -0.1389 -0.9579
vn 0.1470 -0.1119 -0.9828
vn 0.1063 0.0000 -0.9943
vn -0.2823 0.0000 -0.9593
vn -0.1470 -0.1119 0.9828
vn -0.4998 -0.0724 0.8631
vn -0.4787 0.0000 0.8780
vn -0.1063 0.0000 0.9943
vn -0.9463 -0.0724 0.3150
vn -0.9458 -0.0752 0.3159
vn -0.9566 0.0000 0.2913
vn 0.0000 -1.0000 -0.0000
vn -0.7753 0.0000 0.6316
vn 0.7753 0.0000 -0.6316
vn 0.0172 -0.9998 -0.0140
vn 0.6316 0.0000 0.7753
vn 0.7361 0.0000 0.6769
vn -0.0000 1.0000 0.0000
vn 0.0172 0.9998 -0.0140
vn -0.6316 -0.0000 -0.7753
vn -0.5141 -0.0000 -0.8577
vn -0.0170 -0.9998 0.0139
vn -0.7353 0.0000 -0.6777
vn -0.0171 0.9998 0.0139
vn 0.5151 0.0000 0.8572
vn -0.1318 -0.2247 0.9655
vn -0.5175 -0.1422 0.8438
vn -0.9310 -0.1422 0.3363
vn 0.8757 -0.2653 0.4035
vn 0.8873 -0.1389 0.4398
vn 0.8874 -0.1336 0.4412
vn 0.2182 -0.2653 0.9392
vn 0.2514 -0.1389 0.9579
vn 0.8825 0.0000 0.4704
vn 0.2823 0.0000 0.9593
vn 0.4998 -0.0724 -0.8631
vn 0.4787 0.0000 -0.8780
vn 0.9463 -0.0724 -0.3151
vn 0.9458 -0.0752 -0.3159
vn 0.9566 0.0000 -0.2914
vn -0.2182 -0.2653 -0.9392
vn 0.1318 -0.2247 -0.9655
vn -0.8757 -0.2653 -0.4035
vn 0.9310 -0.1422 -0.3363
vn 0.5175 -0.1422 -0.8438
vn 0.2160 0.0000 0.9764
vn -0.2160 0.0000 -0.9764
vn 0.3840 0.0000 0.9233
vn -0.3945 0.0000 -0.9189
vn 0.3945 0.0000 0.9189
vn -0.5844 0.6571 0.4761
vn -0.9947 0.0000 -0.1025
vn -0.5844 -0.6571 0.4761
vn 0.5844 0.6571 -0.4761
vn 0.9947 0.0000 0.1024
vn 0.5844 -0.6571 -0.4761
vn -0.0379 0.9988 0.0309
vn -0.8267 0.0000 -0.5627
vn -0.0379 -0.9988 0.0309
vn -0.3820 0.0000 -0.9242
vn 0.0382 0.9988 -0.0312
vn 0.8279 0.0000 0.5609
vn 0.0382 -0.9988 -0.0311
usemtl col_master
s 1
f 2/1/1 3/2/2 4/3/3 5/4/3
f 6/5/4 7/6/5 8/7/6 9/8/7
f 10/9/8 11/10/9 12/11/10 13/12/11
f 14/13/12 15/14/13 16/15/14 17/16/14
f 19/17/15 18/18/15 22/19/15 20/20/15
f 23/21/16 24/22/16 25/23/16 26/24/16
f 27/25/15 28/26/15 29/27/15 30/28/15 31/29/15
f 32/30/17 33/31/17 34/32/17 35/33/17
f 36/34/15 37/35/18 38/36/18 39/37/15
f 40/38/19 41/39/20 42/40/20 43/41/19
f 44/42/21 45/43/22 46/44/22 47/45/21
f 48/46/23 49/47/24 50/48/24 51/49/23
f 52/50/15 53/51/25 54/52/25 55/53/15
f 56/54/23 57/55/26 58/56/26 59/57/23
f 60/58/21 61/59/27 62/60/27 63/61/21
f 64/62/19 65/63/28 66/64/28 67/65/19
f 68/66/29 69/67/30 11/10/9 10/9/8
f 70/68/15 27/25/15 31/29/15 71/69/15 72/70/15
f 73/71/15 70/68/15 72/70/15 74/72/15 75/73/15
f 28/26/15 73/71/15 75/73/15 76/74/15 29/27/15
f 77/75/31 78/76/31 15/14/13 14/13/12
f 79/77/32 80/78/32 81/79/33 82/80/34
f 83/81/35 68/66/29 10/9/8 84/82/36
f 82/80/34 81/79/33 85/83/37 86/84/37
f 84/82/36 10/9/8 13/12/11 87/85/38
f 7/6/5 88/86/39 89/87/40 8/7/6
f 90/88/41 91/89/42 92/90/43 93/91/43
f 94/92/44 95/93/45 7/6/5 6/5/4
f 96/94/46 97/95/46 3/2/2 2/1/1
f 98/96/47 99/97/47 91/89/42 90/88/41
f 95/93/45 100/98/48 88/86/39 7/6/5
f 101/99/49 102/100/19 103/101/19 104/102/49
f 105/103/21 106/104/21 107/105/21 108/106/21
f 109/107/23 110/108/23 111/109/23 112/110/23
f 113/111/15 114/112/15 115/113/15 116/114/15
f 117/115/50 118/116/23 119/117/23 120/118/50
f 121/119/21 122/120/21 123/121/21 124/122/21
f 125/123/19 126/124/19 127/125/19 128/126/19
f 129/127/15 130/128/15 131/129/15 132/130/15
usemtl col_1
f 65/63/28 133/131/51 134/132/51 66/64/28
f 135/133/23 136/134/23 137/135/52 138/136/52
f 139/137/19 140/138/19 141/139/53 142/140/53
f 143/141/21 144/142/21 145/143/21 146/144/21
f 141/139/53 101/99/49 104/102/49 142/140/53
f 147/145/54 148/146/54 149/147/54 150/148/54
f 151/149/55 152/150/55 153/151/55 154/152/55
f 155/153/56 156/154/56 157/155/56 158/156/56
f 137/135/52 117/115/50 120/118/50 138/136/52
f 159/157/57 160/158/57 161/159/57 162/160/57
f 163/161/58 164/162/58 165/163/58 166/164/58
f 167/165/59 168/166/59 169/167/59 170/168/59
f 61/59/27 171/169/60 172/170/60 62/60/27
f 57/55/26 173/171/61 174/172/61 58/56/26
f 53/51/25 175/173/62 176/174/62 54/52/25
f 49/47/24 177/175/63 178/176/63 50/48/24
f 45/43/22 179/177/64 180/178/64 46/44/22
f 41/39/20 181/179/65 182/180/65 42/40/20
f 37/35/18 183/181/66 184/182/66 38/36/18
f 102/100/19 64/62/19 67/65/19 103/101/19
f 106/104/21 60/58/21 63/61/21 107/105/21
f 110/108/23 56/54/23 59/57/23 111/109/23
f 114/112/15 52/50/15 55/53/15 115/113/15
f 118/116/23 48/46/23 51/49/23 119/117/23
f 122/120/21 44/42/21 47/45/21 123/121/21
f 126/124/19 40/38/19 43/41/19 127/125/19
f 130/128/15 36/34/15 39/37/15 131/129/15
